HIERARCHY
ROOT pelvis
{
  OFFSET 0 100 0
  CHANNELS 6 Xposition Yposition Zposition Zrotation Xrotation Yrotation
  JOINT pelvis_right_femur
  {
    OFFSET -10.78128 -3.44521 -0.5502486
    CHANNELS 3 Zrotation Xrotation Yrotation
    JOINT right_femur_tibia
    {
      OFFSET -0.8047443 -44.0398 -0.1307829
      CHANNELS 3 Zrotation Xrotation Yrotation
      JOINT right_tibia_foot
      {
        OFFSET 3.006224 -47.83518 -5
        CHANNELS 3 Zrotation Xrotation Yrotation
        End Site
        {
          OFFSET 0 -5 15
        }
      }
    }
  }
  JOINT pelvis_left_femur
  {
    OFFSET 10.78128 -3.44521 -0.5502486
    CHANNELS 3 Zrotation Xrotation Yrotation
    JOINT left_femur_tibia
    {
      OFFSET 0.8047443 -44.0398 -0.1307829
      CHANNELS 3 Zrotation Xrotation Yrotation
      JOINT left_tibia_foot
      {
        OFFSET -4.370144 -48.10324 -4.275266
        CHANNELS 3 Zrotation Xrotation Yrotation
        End Site
        {
          OFFSET 0 -5 15
        }
      }
    }
  }
  JOINT pelvis_spine1
  {
    OFFSET 0 6.468898 -3.129235
    CHANNELS 3 Zrotation Xrotation Yrotation
    JOINT spine1
    {
      OFFSET 0 23.15396 4.99043
      CHANNELS 3 Zrotation Xrotation Yrotation
      JOINT spine2
      {
        OFFSET 0 20.79997 -5.064912
        CHANNELS 3 Zrotation Xrotation Yrotation
        JOINT neck
        {
          OFFSET 0 14.38658 9.616178
          CHANNELS 3 Zrotation Xrotation Yrotation
          End Site
          {
            OFFSET 0 20 0
          }
        }
      }
      JOINT right_manubrium
      {
        OFFSET -5.722621 16.35077 3.967754
        CHANNELS 3 Zrotation Xrotation Yrotation
        JOINT right_clavicle
        {
          OFFSET -13.16364 1.694482 -4.693211
          CHANNELS 3 Zrotation Xrotation Yrotation
          JOINT right_humerus
          {
            OFFSET -28.5034 -0.3100689 -2.792744
            CHANNELS 3 Zrotation Xrotation Yrotation
            JOINT right_radius
            {
              OFFSET -25.15693 0.02248979 -1.271978
              CHANNELS 3 Zrotation Xrotation Yrotation
              End Site
              {
                OFFSET -15 0 0
              }
            }
          }
        }
      }
      JOINT left_manubrium
      {
        OFFSET 5.722621 16.35077 3.967754
        CHANNELS 3 Zrotation Xrotation Yrotation
        JOINT left_clavicle
        {
          OFFSET 13.16364 1.694482 -4.693211
          CHANNELS 3 Zrotation Xrotation Yrotation
          JOINT left_humerus
          {
            OFFSET 29.39168 -1.063119 -2.237045
            CHANNELS 3 Zrotation Xrotation Yrotation
            JOINT left_radius
            {
              OFFSET 24.59957 -0.9528479 0.9047498
              CHANNELS 3 Zrotation Xrotation Yrotation
              End Site
              {
                OFFSET 15 -0 -0
              }
            }
          }
        }
      }
    }
  }
}
MOTION
Frames: 11
Frame Time: 0.0416666666667
36.04476 100.5908 256.1638 1.956336 -8.192729 -3.877365 -1.510227 25.46171 8.6981 -0 21.01871 -0 7.992718 -13.61868 0.7639824 -0.6736965 -26.58814 -6.126607 -0 25.00685 -0 -7.688826 -5.320052 19.12082 -1.071344 -1.106641 10.17181 -2.352595 9.579699 -1.598583 2.662779 21.77849 4.843124 1.487181 -14.68845 7.415552 0.8700982 -22.22068 10.95817 79.85183 20.97963 -3.825924 -0 0 28.95594 -26.63864 13.76426 14.11197 4.324422 -12.5836 -2.811302 -94.86353 22.37028 28.08217 0 0 -7.708191 -3.773068 5.743453 17.99954
37.04836 100.4655 263.7232 2.297899 -8.198707 -4.149729 -2.75259 25.23302 8.306492 -0 27.7195 -0 8.526001 -11.00824 0.114622 -2.302444 -23.75084 -7.344557 -0 25.67779 -0 -7.67166 -5.437097 18.60645 -1.634267 -1.902367 10.10094 -2.388448 9.294789 -1.591724 2.83354 21.92406 4.805554 1.385379 -14.59612 7.681043 1.036202 -21.35788 10.52871 80.52925 20.94373 -4.556364 -0 0 27.74153 -26.40555 13.69012 13.81452 4.15461 -12.00567 -2.800801 -94.52801 22.69638 27.76368 0 0 -7.130214 -3.860238 5.80046 18.2619
37.97527 101.0114 271.1825 2.678575 -8.5386 -3.89262 -3.652634 23.42241 7.544566 -0 35.68799 -0 8.689323 -8.508725 -1.109617 -3.933988 -19.82431 -8.339665 -0 26.60668 -0 -7.503353 -6.139933 18.08158 -2.232393 -2.31041 9.722339 -2.354272 9.172811 -1.665895 2.918522 22.21435 4.804847 1.237552 -14.43704 7.934999 1.4716 -20.20766 10.24671 81.54709 21.17249 -5.89867 -0 0 25.56067 -25.92948 13.72533 13.24409 4.000203 -11.9418 -2.873601 -93.62158 23.13552 26.4813 0 0 -7.297986 -3.727974 5.97706 18.20151
38.82972 102.1051 278.257 2.970165 -9.152633 -3.040137 -3.836387 19.53738 6.507547 -0 44.17248 -0 8.444478 -6.875276 -2.7673 -5.31249 -14.72023 -9.053953 -0 27.00842 -0 -7.163308 -7.485555 17.50263 -2.656979 -2.154319 8.882672 -2.275446 9.174361 -1.910983 2.860528 22.63559 4.879734 1.008649 -14.20185 8.181022 2.066232 -18.99915 10.12123 82.81734 21.62706 -7.591204 -0 0 22.83128 -25.2333 13.84236 12.51036 3.822888 -12.40723 -3.053447 -92.1459 23.65059 24.23091 0 0 -8.146858 -3.357359 6.268291 17.82234
39.56869 103.579 284.8166 3.004078 -9.921401 -2.041015 -3.389091 13.66885 5.326962 -0 50.96815 -0 7.843129 -6.488889 -4.411482 -6.120402 -8.901455 -9.499123 -0 26.33726 -0 -6.828633 -9.007931 16.89857 -2.809134 -1.532038 7.66248 -2.106045 9.200877 -2.339221 2.661198 23.13811 5.050389 0.7050814 -13.88005 8.438194 2.642073 -17.8975 10.11204 84.23121 22.21809 -9.405581 -0 0 20.04594 -24.38589 13.99933 11.75513 3.684374 -13.24639 -3.349662 -90.25592 24.1577 21.16911 0 0 -9.560062 -2.774776 6.65677 17.17824
40.21499 105.2157 290.8079 2.841708 -10.47139 -1.011793 -2.606324 6.598547 4.264309 -0 54.08549 -0 6.974312 -6.828064 -5.631922 -6.405175 -2.94694 -9.803131 -0 24.59627 -0 -6.644109 -10.34733 16.23523 -2.756941 -0.7981181 6.195242 -1.833234 9.157676 -3.002724 2.475925 23.67393 5.242525 0.4112253 -13.48879 8.735976 2.924745 -16.85091 10.03063 85.80222 22.80564 -11.29305 -0 0 17.62393 -23.4671 14.11552 11.08298 3.689331 -14.27813 -3.7116 -88.17642 24.57317 17.53928 0 0 -11.46877 -2.040885 7.124921 16.31372
40.79068 106.6188 296.3537 2.658659 -10.49838 0.096357 -1.923116 -0.4530603 3.448514 -0 52.87219 -0 6.004396 -7.052977 -6.476469 -6.348052 2.525583 -10.10293 -0 22.06417 -0 -6.597464 -11.55097 15.44374 -2.671308 -0.2882861 4.71152 -1.482354 8.933701 -3.90132 2.407727 24.11789 5.380368 0.1874325 -13.08594 9.049058 2.752148 -15.77787 9.716942 87.42968 23.27011 -13.25702 -0 0 15.69293 -22.55701 14.12875 10.51936 3.946279 -15.36111 -4.050302 -86.06404 24.85581 13.59099 0 0 -13.84102 -1.211861 7.664055 15.23103
41.2744 107.4524 301.7048 2.571806 -10.07608 1.326947 -1.654535 -6.936361 2.896888 -0 47.61893 -0 4.963368 -7.036012 -7.081674 -6.126979 7.368249 -10.40738 -0 19.33032 -0 -6.609421 -12.81286 14.5442 -2.713116 -0.02855485 3.397019 -1.082421 8.521954 -4.940854 2.505383 24.41457 5.386455 0.06919676 -12.72804 9.308161 2.188119 -14.6943 9.192226 88.89616 23.57622 -15.22996 -0 0 14.11856 -21.70983 14.02455 10.01249 4.454575 -16.45384 -4.319205 -83.99647 25.01012 9.536001 0 0 -16.57331 -0.3246981 8.263983 13.94315
41.66387 107.5628 307.1267 2.652531 -9.386421 2.581339 -1.873782 -12.55463 2.526779 -0 39.41689 -0 3.815313 -7.051512 -7.603315 -5.93491 11.63338 -10.64384 -0 17.02285 -0 -6.623614 -14.24458 13.61612 -2.949503 0.04728424 2.362198 -0.6799636 8.002814 -5.943316 2.745014 24.5489 5.233444 0.0526438 -12.48589 9.454258 1.424799 -13.57391 8.601583 90.10937 23.75227 -17.17189 -0 0 12.64446 -20.91152 13.82681 9.467622 5.141226 -17.53856 -4.479318 -82.05894 25.04799 5.579928 0 0 -19.5101 0.6088851 8.913926 12.4973
41.97018 106.9685 312.7149 2.887326 -8.627845 3.641036 -2.409796 -17.16776 2.146234 -0 29.92369 -0 2.546229 -7.376687 -8.141428 -5.889485 15.37107 -10.73547 -0 15.61491 -0 -6.638787 -15.79977 12.74691 -3.316887 0.04090775 1.687305 -0.3173169 7.47976 -6.691162 3.04158 24.54726 4.968482 0.09951774 -12.40284 9.475362 0.7036446 -12.41087 8.131179 91.09388 23.85735 -19.02929 -0 0 11.02857 -20.08934 13.57785 8.786927 5.87884 -18.61111 -4.500555 -80.33955 24.9823 1.912998 0 0 -22.43294 1.581339 9.590634 10.97345
42.16154 105.856 318.3923 3.144876 -7.986293 4.312632 -2.873397 -20.77958 1.596731 -0 20.9623 -0 1.178408 -8.136622 -8.693231 -5.948085 18.59027 -10.66731 -0 15.39356 -0 -6.70436 -17.26495 12.01796 -3.649717 0.08395584 1.379295 -0.003564004 7.029581 -7.050928 3.301729 24.49461 4.673023 0.1641978 -12.45618 9.398556 0.2297425 -11.32021 7.909811 91.86548 23.9602 -20.6639 -0 0 9.176181 -19.17223 13.31862 7.927148 6.512279 -19.66482 -4.38732 -78.90778 24.83844 -1.273657 0 0 -25.04483 2.560198 10.25445 9.477495
